#tb 0: 1/25
#media_type 0: video
#codec_id 0: rawvideo
#dimensions 0: 416x240
#sar 0: 0/1
0,          0,          0,        1,   299520, 0x004cc70a
0,          1,          1,        1,   299520, 0x2e74bdf4
0,          2,          2,        1,   299520, 0xde18e337
0,          3,          3,        1,   299520, 0x7ddf59d8
0,          4,          4,        1,   299520, 0xf210a3dc
0,          5,          5,        1,   299520, 0xa5f2f235
0,          6,          6,        1,   299520, 0x463ea8eb
0,          7,          7,        1,   299520, 0x7848209f
0,          8,          8,        1,   299520, 0x052a03fa
0,          9,          9,        1,   299520, 0x4eab3bd1
0,         10,         10,        1,   299520, 0x28a10c10
0,         11,         11,        1,   299520, 0x10821dd8
0,         12,         12,        1,   299520, 0xe2c930c7
0,         13,         13,        1,   299520, 0xd0d83daf
0,         14,         14,        1,   299520, 0xe1ad5b16
0,         15,         15,        1,   299520, 0x4b9bc810
0,         16,         16,        1,   299520, 0x2a2cfd12
0,         17,         17,        1,   299520, 0xd484da7a
0,         18,         18,        1,   299520, 0x20b91075
0,         19,         19,        1,   299520, 0xd9b68623
0,         20,         20,        1,   299520, 0x0781cacc
0,         21,         21,        1,   299520, 0x9a1662ba
0,         22,         22,        1,   299520, 0x7101143f
0,         23,         23,        1,   299520, 0xfab2a175
0,         24,         24,        1,   299520, 0x6803a29c
0,         25,         25,        1,   299520, 0x1fcbca29
0,         26,         26,        1,   299520, 0x5b8e6ec9
0,         27,         27,        1,   299520, 0x3943dcf0
0,         28,         28,        1,   299520, 0xe63e63c2
0,         29,         29,        1,   299520, 0x23702f78
0,         30,         30,        1,   299520, 0x8519730c
0,         31,         31,        1,   299520, 0x892f0dd2
0,         32,         32,        1,   299520, 0xd8c7df88
0,         33,         33,        1,   299520, 0x9aeda746
0,         34,         34,        1,   299520, 0xcc3b65ff
0,         35,         35,        1,   299520, 0xaf00e023
0,         36,         36,        1,   299520, 0xdcef0720
0,         37,         37,        1,   299520, 0xcf29931b
0,         38,         38,        1,   299520, 0xeee17fa5
0,         39,         39,        1,   299520, 0xb58b858b
0,         40,         40,        1,   299520, 0x61e7d3cc
0,         41,         41,        1,   299520, 0x4eb125ae
0,         42,         42,        1,   299520, 0x815427fb
0,         43,         43,        1,   299520, 0x862e5183
0,         44,         44,        1,   299520, 0x6bcf04be
0,         45,         45,        1,   299520, 0xc7a50be0
0,         46,         46,        1,   299520, 0x3b3a3c3f
0,         47,         47,        1,   299520, 0x9025904d
0,         48,         48,        1,   299520, 0x9b9b2b65
0,         49,         49,        1,   299520, 0x5ba8e684
0,         50,         50,        1,   299520, 0x07d7e949
0,         51,         51,        1,   299520, 0xac3e6dd0
0,         52,         52,        1,   299520, 0x3c70a144
0,         53,         53,        1,   299520, 0x53dd0c68
0,         54,         54,        1,   299520, 0x72c87c90
0,         55,         55,        1,   299520, 0x70a91ce7
0,         56,         56,        1,   299520, 0xc99e8cfc
0,         57,         57,        1,   299520, 0x9ade3dc4
0,         58,         58,        1,   299520, 0x1437e24c
0,         59,         59,        1,   299520, 0xa345ab67
0,         60,         60,        1,   299520, 0x87ecd576
0,         61,         61,        1,   299520, 0xc307d58c
0,         62,         62,        1,   299520, 0x24f20ee0
0,         63,         63,        1,   299520, 0x146da0bf
0,         64,         64,        1,   299520, 0x77be1075
0,         65,         65,        1,   299520, 0xf8c545d8
0,         66,         66,        1,   299520, 0x34fff2f9
0,         67,         67,        1,   299520, 0xa59d8e58
0,         68,         68,        1,   299520, 0x75d8bae2
0,         69,         69,        1,   299520, 0x8c36adb5
0,         70,         70,        1,   299520, 0x5f4c528b
0,         71,         71,        1,   299520, 0x469031ef
0,         72,         72,        1,   299520, 0x7626cf77
0,         73,         73,        1,   299520, 0x78c1b961
0,         74,         74,        1,   299520, 0x16e6c1f5
0,         75,         75,        1,   299520, 0xe7142a36
0,         76,         76,        1,   299520, 0x3261bf18
0,         77,         77,        1,   299520, 0xaa101d47
0,         78,         78,        1,   299520, 0x53827997
0,         79,         79,        1,   299520, 0x5c65dcdd
0,         80,         80,        1,   299520, 0xfbefb84b
0,         81,         81,        1,   299520, 0x2cb0e86b
0,         82,         82,        1,   299520, 0xdcab1db6
0,         83,         83,        1,   299520, 0x4404349c
0,         84,         84,        1,   299520, 0xab861ce0
0,         85,         85,        1,   299520, 0x36ba4259
0,         86,         86,        1,   299520, 0x5b7b43a5
0,         87,         87,        1,   299520, 0x025be7d7
0,         88,         88,        1,   299520, 0x38c250c8
0,         89,         89,        1,   299520, 0xe2faa429
0,         90,         90,        1,   299520, 0xb3b6bf4b
0,         91,         91,        1,   299520, 0x530ca220
0,         92,         92,        1,   299520, 0xfb34968a
0,         93,         93,        1,   299520, 0xcd8f45c0
0,         94,         94,        1,   299520, 0x2ed892e0
0,         95,         95,        1,   299520, 0xf7d18ca8
0,         96,         96,        1,   299520, 0xe8c45611
0,         97,         97,        1,   299520, 0x561daa47
0,         98,         98,        1,   299520, 0x959bfb36
0,         99,         99,        1,   299520, 0xd20493b2
0,        100,        100,        1,   299520, 0x283791c5
0,        101,        101,        1,   299520, 0xd5e2f2a5
0,        102,        102,        1,   299520, 0x7d8c03cf
0,        103,        103,        1,   299520, 0x0d14a990
0,        104,        104,        1,   299520, 0x2a5a4f20
0,        105,        105,        1,   299520, 0x0348914f
0,        106,        106,        1,   299520, 0xeb35ccb9
0,        107,        107,        1,   299520, 0x8c7ab52e
0,        108,        108,        1,   299520, 0x12794a02
0,        109,        109,        1,   299520, 0x8aa583b8
0,        110,        110,        1,   299520, 0xac0f3dab
0,        111,        111,        1,   299520, 0x33ed5a67
0,        112,        112,        1,   299520, 0xc01077f2
0,        113,        113,        1,   299520, 0xb40a0962
0,        114,        114,        1,   299520, 0xbae7f3b2
0,        115,        115,        1,   299520, 0xe64d3233
0,        116,        116,        1,   299520, 0xdd4d81cc
0,        117,        117,        1,   299520, 0xbbecb19c
0,        118,        118,        1,   299520, 0xb5591b30
0,        119,        119,        1,   299520, 0x8f2a4f87
0,        120,        120,        1,   299520, 0xdc2e39cc
0,        121,        121,        1,   299520, 0xbd9d0984
0,        122,        122,        1,   299520, 0xfb24dbdb
0,        123,        123,        1,   299520, 0x5a8b72c5
0,        124,        124,        1,   299520, 0x61793380
0,        125,        125,        1,   299520, 0x599fe07d
0,        126,        126,        1,   299520, 0x69ca3c35
0,        127,        127,        1,   299520, 0xfdf83a7b
